<svg width="279" height="41" viewBox="0 0 279 41" fill="none" xmlns="http://www.w3.org/2000/svg">
<path d="M41.6294 0.90634H45.2687C46.6751 0.90634 47.8348 1.22733 48.748 1.86933C49.6678 2.50376 50.3544 3.38367 50.8076 4.50904C51.2608 5.63441 51.4875 6.92217 51.4875 8.37231C51.4875 9.83 51.2608 11.1215 50.8076 12.2469C50.3544 13.3723 49.6678 14.256 48.748 14.898C47.8348 15.5399 46.6751 15.8609 45.2687 15.8609H41.6294V0.90634ZM44.1089 3.43276V13.3345H45.0487C45.9086 13.3345 46.6151 13.123 47.1683 12.7001C47.7282 12.2696 48.1448 11.6804 48.4181 10.9327C48.698 10.185 48.838 9.33907 48.838 8.39497C48.8447 7.44331 48.7113 6.59362 48.4381 5.84589C48.1648 5.09816 47.7449 4.50904 47.1783 4.07853C46.6184 3.64802 45.9086 3.43276 45.0487 3.43276H44.1089Z" fill="#0057B8"/>
<path d="M55.754 15.8609H53.2145V6.55963H55.754V8.06642H55.704C55.7506 7.88515 55.8773 7.65479 56.0839 7.37534C56.2972 7.09588 56.5905 6.84664 56.9637 6.62761C57.337 6.40102 57.7869 6.28773 58.3135 6.28773C58.6934 6.28773 59.0367 6.35193 59.3433 6.48033C59.6566 6.60117 59.8798 6.72202 60.0131 6.84286L59.0133 9.19934C58.9267 9.0785 58.7634 8.95388 58.5234 8.82548C58.2902 8.69708 57.9969 8.63288 57.6436 8.63288C57.2237 8.63288 56.8738 8.76505 56.5938 9.0294C56.3139 9.2862 56.1039 9.60342 55.9639 9.98106C55.824 10.3511 55.754 10.6986 55.754 11.0234V15.8609Z" fill="#0057B8"/>
<path d="M62.6554 11.8504C62.6754 12.2733 62.7754 12.651 62.9554 12.9833C63.1354 13.3156 63.3953 13.5762 63.7352 13.765C64.0818 13.9538 64.4951 14.0483 64.975 14.0483C65.4082 14.0483 65.7882 13.9878 66.1148 13.867C66.448 13.7461 66.728 13.5989 66.9546 13.4251C67.1879 13.2439 67.3612 13.0702 67.4745 12.904L68.5243 14.6714C68.3377 14.9357 68.0877 15.1812 67.7744 15.4078C67.4678 15.6268 67.0746 15.8005 66.5947 15.9289C66.1214 16.0649 65.5282 16.1328 64.815 16.1328C63.9152 16.1328 63.1254 15.9327 62.4455 15.5324C61.7656 15.1321 61.2357 14.5543 60.8558 13.799C60.4759 13.0437 60.2859 12.1449 60.2859 11.1027C60.2859 10.1963 60.4559 9.38061 60.7958 8.65554C61.1357 7.92291 61.629 7.34512 62.2755 6.92217C62.9287 6.49921 63.7119 6.28773 64.6251 6.28773C65.4849 6.28773 66.2281 6.47655 66.8546 6.85419C67.4878 7.22428 67.9777 7.76808 68.3243 8.4856C68.6709 9.20312 68.8442 10.0792 68.8442 11.114C68.8442 11.1744 68.8409 11.299 68.8342 11.4879C68.8342 11.6691 68.8276 11.79 68.8142 11.8504H62.6554ZM66.4647 10.0717C66.458 9.83 66.3914 9.56943 66.2647 9.28998C66.1448 9.01052 65.9548 8.77261 65.6949 8.57623C65.4349 8.37986 65.0883 8.28167 64.6551 8.28167C64.2218 8.28167 63.8652 8.37608 63.5853 8.56491C63.312 8.75373 63.1054 8.98786 62.9654 9.26732C62.8254 9.53922 62.7454 9.80735 62.7254 10.0717H66.4647Z" fill="#0057B8"/>
<path d="M77.0078 15.8609V14.2409C76.9478 14.407 76.7945 14.6412 76.5479 14.9433C76.3013 15.2454 75.968 15.5211 75.5481 15.7703C75.1348 16.012 74.6483 16.1328 74.0884 16.1328C73.3019 16.1328 72.6053 15.9214 71.9988 15.4984C71.3922 15.0679 70.9157 14.4825 70.5691 13.7424C70.2291 12.9946 70.0592 12.1525 70.0592 11.2159C70.0592 10.2794 70.2291 9.44103 70.5691 8.70086C70.9157 7.95313 71.3922 7.36401 71.9988 6.93349C72.6053 6.50298 73.3019 6.28773 74.0884 6.28773C74.6349 6.28773 75.1082 6.39347 75.5081 6.60495C75.9147 6.80887 76.2413 7.05056 76.4879 7.33002C76.7412 7.60192 76.9045 7.84739 76.9778 8.06642V6.55963H79.4973V15.8609H77.0078ZM72.5487 11.2159C72.5487 11.7371 72.652 12.1978 72.8586 12.5981C73.0652 12.9909 73.3385 13.2968 73.6785 13.5158C74.0184 13.7348 74.3883 13.8443 74.7882 13.8443C75.2082 13.8443 75.5814 13.7348 75.908 13.5158C76.2346 13.2892 76.4912 12.9795 76.6779 12.5868C76.8712 12.1865 76.9678 11.7295 76.9678 11.2159C76.9678 10.7024 76.8712 10.2492 76.6779 9.85644C76.4912 9.45614 76.2346 9.1427 75.908 8.91611C75.5814 8.68953 75.2082 8.57623 74.7882 8.57623C74.3883 8.57623 74.0184 8.68953 73.6785 8.91611C73.3385 9.13514 73.0652 9.44481 72.8586 9.84511C72.652 10.2379 72.5487 10.6948 72.5487 11.2159Z" fill="#0057B8"/>
<path d="M92.32 6.28773C92.9332 6.28773 93.4664 6.43501 93.9197 6.72957C94.3796 7.02413 94.7362 7.4773 94.9894 8.08908C95.2494 8.6933 95.3794 9.47124 95.3794 10.4229V15.8609H92.8799V10.8874C92.8799 10.1019 92.7765 9.49013 92.5699 9.05206C92.37 8.614 91.9867 8.39497 91.4201 8.39497C91.1002 8.39497 90.8069 8.49315 90.5403 8.68953C90.2737 8.87835 90.0604 9.1578 89.9004 9.52789C89.7471 9.89798 89.6705 10.3511 89.6705 10.8874V15.8609H87.3309V10.8874C87.3309 10.1019 87.2143 9.49013 86.981 9.05206C86.7477 8.614 86.3778 8.39497 85.8712 8.39497C85.5446 8.39497 85.248 8.48938 84.9814 8.6782C84.7214 8.86702 84.5148 9.14647 84.3615 9.51656C84.2149 9.8791 84.1416 10.336 84.1416 10.8874V15.8609H81.6221V6.55963H84.1416V7.91914C84.2149 7.685 84.3815 7.44331 84.6415 7.19407C84.9081 6.94482 85.238 6.73335 85.6313 6.55963C86.0245 6.37836 86.4478 6.28773 86.901 6.28773C87.3943 6.28773 87.8042 6.38214 88.1308 6.57096C88.4574 6.75978 88.7207 7.00147 88.9206 7.29603C89.1273 7.58304 89.2839 7.88515 89.3905 8.20237C89.4839 7.90781 89.6671 7.61325 89.9404 7.31869C90.2137 7.02413 90.557 6.77866 90.9702 6.58229C91.3835 6.38591 91.8334 6.28773 92.32 6.28773Z" fill="#0057B8"/>
<path d="M100.829 6.28773C101.322 6.28773 101.779 6.3406 102.199 6.44634C102.619 6.54452 102.972 6.65782 103.259 6.78621C103.552 6.91461 103.745 7.02413 103.838 7.11476L102.969 8.84814C102.835 8.72729 102.595 8.58379 102.249 8.41763C101.909 8.25146 101.529 8.16838 101.109 8.16838C100.729 8.16838 100.409 8.24391 100.149 8.39497C99.8893 8.53847 99.7593 8.7575 99.7593 9.05206C99.7593 9.34662 99.8993 9.58076 100.179 9.75448C100.459 9.92819 100.849 10.0792 101.349 10.2076C101.769 10.3058 102.182 10.4569 102.589 10.6608C102.995 10.8572 103.332 11.1442 103.599 11.5218C103.865 11.8919 103.998 12.3866 103.998 13.006C103.998 13.6177 103.882 14.1276 103.649 14.5354C103.422 14.9357 103.119 15.2529 102.739 15.4871C102.359 15.7212 101.942 15.8874 101.489 15.9856C101.036 16.0837 100.586 16.1328 100.139 16.1328C99.5593 16.1328 99.0494 16.0686 98.6095 15.9402C98.1696 15.8194 97.8063 15.6797 97.5197 15.5211C97.2398 15.3549 97.0398 15.2152 96.9198 15.1019L97.7897 13.1759C97.963 13.3496 98.2463 13.5422 98.6395 13.7537C99.0394 13.9576 99.4693 14.0596 99.9293 14.0596C100.409 14.0596 100.786 13.9652 101.059 13.7764C101.339 13.5875 101.479 13.3345 101.479 13.0173C101.479 12.7832 101.412 12.5943 101.279 12.4508C101.146 12.2998 100.962 12.1752 100.729 12.077C100.496 11.9788 100.223 11.8919 99.9093 11.8164C99.6227 11.7484 99.3294 11.6502 99.0294 11.5218C98.7295 11.3859 98.4496 11.2084 98.1896 10.9894C97.9296 10.7703 97.7197 10.4984 97.5597 10.1737C97.3998 9.84133 97.3198 9.44481 97.3198 8.98409C97.3198 8.39497 97.4864 7.90403 97.8197 7.51129C98.1529 7.11099 98.5862 6.80887 99.1194 6.60495C99.6526 6.39347 100.223 6.28773 100.829 6.28773Z" fill="#0057B8"/>
<path d="M111.011 0.90634H115.21C115.95 0.90634 116.64 1.01963 117.28 1.24622C117.92 1.4728 118.437 1.85044 118.83 2.37914C119.23 2.90784 119.43 3.62913 119.43 4.54303C119.43 5.1548 119.326 5.70238 119.12 6.18577C118.913 6.66915 118.65 7.06567 118.33 7.37534C118.01 7.67745 117.673 7.87005 117.32 7.95313C117.62 7.99089 117.927 8.09285 118.24 8.25902C118.553 8.42518 118.843 8.65554 119.11 8.9501C119.376 9.24466 119.59 9.61475 119.75 10.0604C119.916 10.506 120 11.0271 120 11.6238C120 12.4546 119.84 13.191 119.52 13.833C119.206 14.4674 118.74 14.9659 118.12 15.3285C117.507 15.6834 116.744 15.8609 115.83 15.8609H111.011V0.90634ZM113.511 13.5724H115.32C115.827 13.5724 116.23 13.478 116.53 13.2892C116.837 13.1004 117.057 12.8436 117.19 12.5188C117.323 12.194 117.39 11.8239 117.39 11.4085C117.39 10.7439 117.203 10.2341 116.83 9.8791C116.457 9.52411 115.927 9.34662 115.24 9.34662H113.511V13.5724ZM113.511 7.10343H115.101C115.514 7.10343 115.854 7.0128 116.12 6.83153C116.394 6.64271 116.6 6.39347 116.74 6.0838C116.88 5.76658 116.95 5.42293 116.95 5.05284C116.95 4.34288 116.767 3.85572 116.4 3.59137C116.04 3.32702 115.55 3.19485 114.931 3.19485H113.511V7.10343Z" fill="#0057B8"/>
<path d="M124.295 15.8609H121.756V6.55963H124.295V8.06642H124.245C124.292 7.88515 124.419 7.65479 124.625 7.37534C124.839 7.09588 125.132 6.84664 125.505 6.62761C125.878 6.40102 126.328 6.28773 126.855 6.28773C127.235 6.28773 127.578 6.35193 127.885 6.48033C128.198 6.60117 128.421 6.72202 128.554 6.84286L127.555 9.19934C127.468 9.0785 127.305 8.95388 127.065 8.82548C126.831 8.69708 126.538 8.63288 126.185 8.63288C125.765 8.63288 125.415 8.76505 125.135 9.0294C124.855 9.2862 124.645 9.60342 124.505 9.98106C124.365 10.3511 124.295 10.6986 124.295 11.0234V15.8609Z" fill="#0057B8"/>
<path d="M135.766 15.8609V14.2409C135.706 14.407 135.553 14.6412 135.306 14.9433C135.059 15.2454 134.726 15.5211 134.306 15.7703C133.893 16.012 133.406 16.1328 132.846 16.1328C132.06 16.1328 131.363 15.9214 130.757 15.4984C130.15 15.0679 129.674 14.4825 129.327 13.7424C128.987 12.9946 128.817 12.1525 128.817 11.2159C128.817 10.2794 128.987 9.44103 129.327 8.70086C129.674 7.95313 130.15 7.36401 130.757 6.93349C131.363 6.50298 132.06 6.28773 132.846 6.28773C133.393 6.28773 133.866 6.39347 134.266 6.60495C134.673 6.80887 134.999 7.05056 135.246 7.33002C135.499 7.60192 135.663 7.84739 135.736 8.06642V6.55963H138.255V15.8609H135.766ZM131.307 11.2159C131.307 11.7371 131.41 12.1978 131.617 12.5981C131.823 12.9909 132.097 13.2968 132.437 13.5158C132.776 13.7348 133.146 13.8443 133.546 13.8443C133.966 13.8443 134.339 13.7348 134.666 13.5158C134.993 13.2892 135.249 12.9795 135.436 12.5868C135.629 12.1865 135.726 11.7295 135.726 11.2159C135.726 10.7024 135.629 10.2492 135.436 9.85644C135.249 9.45614 134.993 9.1427 134.666 8.91611C134.339 8.68953 133.966 8.57623 133.546 8.57623C133.146 8.57623 132.776 8.68953 132.437 8.91611C132.097 9.13514 131.823 9.44481 131.617 9.84511C131.41 10.2379 131.307 10.6948 131.307 11.2159Z" fill="#0057B8"/>
<path d="M145.579 6.28773C146.139 6.28773 146.686 6.4199 147.219 6.68425C147.752 6.94105 148.189 7.35268 148.529 7.91914C148.875 8.4856 149.048 9.22578 149.048 10.1397V15.8609H146.499V10.6382C146.499 9.87532 146.339 9.30886 146.019 8.93877C145.706 8.56868 145.292 8.38364 144.779 8.38364C144.446 8.38364 144.126 8.48938 143.819 8.70086C143.52 8.90478 143.273 9.19179 143.08 9.56188C142.893 9.92441 142.8 10.3398 142.8 10.8081V15.8609H140.26V6.55963H142.8V8.04376C142.873 7.78696 143.04 7.52262 143.3 7.25071C143.559 6.97881 143.889 6.75223 144.289 6.57096C144.689 6.38214 145.119 6.28773 145.579 6.28773Z" fill="#0057B8"/>
<path d="M155.251 13.8443C155.684 13.8443 156.037 13.7612 156.311 13.5951C156.584 13.4289 156.764 13.3043 156.85 13.2212L158.03 15.2038C157.937 15.2869 157.764 15.404 157.51 15.555C157.257 15.7061 156.934 15.8383 156.541 15.9516C156.154 16.0724 155.711 16.1328 155.211 16.1328C154.344 16.1328 153.568 15.9365 152.881 15.5437C152.195 15.1434 151.652 14.577 151.252 13.8443C150.858 13.1042 150.662 12.2242 150.662 11.2046C150.662 10.1774 150.858 9.29753 151.252 8.56491C151.652 7.83228 152.195 7.2696 152.881 6.87685C153.568 6.4841 154.344 6.28773 155.211 6.28773C155.704 6.28773 156.141 6.34815 156.521 6.469C156.907 6.58984 157.23 6.72957 157.49 6.88818C157.75 7.03924 157.93 7.16386 158.03 7.26204L156.82 9.25599C156.774 9.19557 156.684 9.11249 156.551 9.00675C156.417 8.90101 156.241 8.80282 156.021 8.71219C155.807 8.62155 155.551 8.57623 155.251 8.57623C154.884 8.57623 154.534 8.68575 154.201 8.90478C153.874 9.12381 153.608 9.4297 153.401 9.82245C153.195 10.2152 153.091 10.6759 153.091 11.2046C153.091 11.7333 153.195 12.1978 153.401 12.5981C153.608 12.9909 153.874 13.2968 154.201 13.5158C154.534 13.7348 154.884 13.8443 155.251 13.8443Z" fill="#0057B8"/>
<path d="M164.766 6.28773C165.326 6.28773 165.873 6.4199 166.406 6.68425C166.939 6.94105 167.376 7.35268 167.716 7.91914C168.062 8.4856 168.236 9.22578 168.236 10.1397V15.8609H165.686V10.6382C165.686 9.87532 165.533 9.30886 165.226 8.93877C164.926 8.56868 164.523 8.38364 164.017 8.38364C163.677 8.38364 163.35 8.48938 163.037 8.70086C162.73 8.90478 162.477 9.19179 162.277 9.56188C162.084 9.92441 161.987 10.3398 161.987 10.8081V15.8609H159.437V0.271902H161.987V8.04376C162.054 7.78696 162.217 7.52262 162.477 7.25071C162.737 6.97881 163.067 6.75223 163.467 6.57096C163.867 6.38214 164.3 6.28773 164.766 6.28773Z" fill="#0057B8"/>
<path d="M179.441 16.1328C178.567 16.1328 177.788 15.9214 177.101 15.4984C176.421 15.0754 175.888 14.4977 175.501 13.765C175.115 13.0248 174.921 12.1827 174.921 11.2386C174.921 10.2945 175.115 9.45236 175.501 8.71219C175.888 7.96446 176.421 7.37534 177.101 6.94482C177.788 6.50676 178.567 6.28773 179.441 6.28773C180.32 6.28773 181.097 6.50676 181.77 6.94482C182.443 7.37534 182.97 7.96446 183.35 8.71219C183.73 9.45236 183.92 10.2945 183.92 11.2386C183.92 12.1827 183.73 13.0248 183.35 13.765C182.97 14.4977 182.443 15.0754 181.77 15.4984C181.097 15.9214 180.32 16.1328 179.441 16.1328ZM179.441 13.7424C179.861 13.7424 180.224 13.6366 180.53 13.4251C180.844 13.2061 181.084 12.9078 181.25 12.5301C181.424 12.1449 181.51 11.7107 181.51 11.2273C181.51 10.7439 181.424 10.3096 181.25 9.92441C181.084 9.53922 180.844 9.23711 180.53 9.01807C180.224 8.79149 179.861 8.6782 179.441 8.6782C179.021 8.6782 178.654 8.79149 178.341 9.01807C178.034 9.23711 177.794 9.53922 177.621 9.92441C177.448 10.3096 177.361 10.7439 177.361 11.2273C177.361 11.7107 177.448 12.1449 177.621 12.5301C177.794 12.9078 178.034 13.2061 178.341 13.4251C178.654 13.6366 179.021 13.7424 179.441 13.7424Z" fill="#0057B8"/>
<path d="M184.866 6.55963H186.346V4.03321C186.346 3.11177 186.506 2.35648 186.826 1.76736C187.146 1.17069 187.559 0.728848 188.066 0.441841C188.572 0.14728 189.095 0 189.635 0C190.295 0 190.802 0.101963 191.155 0.30589C191.508 0.509816 191.725 0.657096 191.805 0.74773L190.825 2.87763C190.792 2.82476 190.698 2.74168 190.545 2.62838C190.399 2.50754 190.202 2.44712 189.955 2.44712C189.782 2.44712 189.612 2.49621 189.445 2.5944C189.279 2.69258 189.142 2.87385 189.035 3.1382C188.929 3.40255 188.875 3.79152 188.875 4.30511V6.55963H191.025V8.9501H188.875V15.8609H186.346V8.9501H184.866V6.55963Z" fill="#0057B8"/>
<path d="M205.453 0.90634H207.953V10.1283C207.953 11.3595 207.736 12.4244 207.303 13.3232C206.877 14.222 206.273 14.9168 205.493 15.4078C204.72 15.8911 203.807 16.1328 202.754 16.1328C201.694 16.1328 200.771 15.8911 199.985 15.4078C199.205 14.9168 198.598 14.222 198.165 13.3232C197.738 12.4244 197.525 11.3595 197.525 10.1283V0.90634H200.015V9.98106C200.015 10.7363 200.128 11.3821 200.354 11.9184C200.588 12.4471 200.911 12.8511 201.324 13.1306C201.738 13.4025 202.214 13.5384 202.754 13.5384C203.287 13.5384 203.757 13.4025 204.164 13.1306C204.57 12.8511 204.887 12.4471 205.114 11.9184C205.34 11.3821 205.453 10.7363 205.453 9.98106V0.90634Z" fill="#0057B8"/>
<path d="M222.977 15.8609H219.938L217.488 4.55436H217.948L215.489 15.8609H212.439L209.52 0.90634H212.379L214.129 12.1449H214.099L216.718 0.90634H218.708L221.338 12.1449H221.298L223.057 0.90634H225.917L222.977 15.8609Z" fill="#0057B8"/>
<path d="M230.802 0.90634H233.311L238.39 15.8609H235.731L234.701 12.6321H229.422L228.372 15.8609H225.703L230.802 0.90634ZM230.242 10.1283H233.881L232.071 4.32777H232.041L230.242 10.1283Z" fill="#0057B8"/>
<path d="M243.768 0.90634H246.277L251.356 15.8609H248.697L247.667 12.6321H242.388L241.338 15.8609H238.669L243.768 0.90634ZM243.208 10.1283H246.847L245.037 4.32777H245.007L243.208 10.1283Z" fill="#0057B8"/>
<path d="M42.1511 36.4043C41.9936 36.4043 41.8657 36.3625 41.7672 36.279C41.6753 36.1895 41.6294 36.0732 41.6294 35.93V25.3429C41.6294 25.1997 41.6753 25.0864 41.7672 25.0028C41.8657 24.9133 41.9936 24.8686 42.1511 24.8686C42.3086 24.8686 42.4333 24.9133 42.5252 25.0028C42.6171 25.0864 42.663 25.1997 42.663 25.3429V30.0861H50.9222V25.3429C50.9222 25.1997 50.9681 25.0864 51.06 25.0028C51.1519 24.9133 51.2766 24.8686 51.4341 24.8686C51.5916 24.8686 51.7163 24.9133 51.8082 25.0028C51.9066 25.0864 51.9558 25.1997 51.9558 25.3429V35.93C51.9558 36.0732 51.9066 36.1895 51.8082 36.279C51.7163 36.3625 51.5916 36.4043 51.4341 36.4043C51.2766 36.4043 51.1519 36.3625 51.06 36.279C50.9681 36.1895 50.9222 36.0732 50.9222 35.93V31.0257H42.663V35.93C42.663 36.0732 42.6171 36.1895 42.5252 36.279C42.4333 36.3625 42.3086 36.4043 42.1511 36.4043Z" fill="#0057B8"/>
<path d="M56.1674 36.4043C55.8196 36.4043 55.6457 36.2462 55.6457 35.93V25.3429C55.6457 25.0267 55.8196 24.8686 56.1674 24.8686H63.5406C63.8885 24.8686 64.0624 25.0267 64.0624 25.3429C64.0624 25.6532 63.8885 25.8083 63.5406 25.8083H56.6793V30.095H61.2174C61.5652 30.095 61.7392 30.2501 61.7392 30.5604C61.7392 30.8766 61.5652 31.0347 61.2174 31.0347H56.6793V35.4646H63.5406C63.8885 35.4646 64.0624 35.6197 64.0624 35.93C64.0624 36.2462 63.8885 36.4043 63.5406 36.4043H56.1674Z" fill="#0057B8"/>
<path d="M67.2035 36.4043C66.8557 36.4043 66.6818 36.2462 66.6818 35.93V25.3429C66.6818 25.0267 66.8557 24.8686 67.2035 24.8686C67.5448 24.8686 67.7154 25.0267 67.7154 25.3429V35.4646H73.7006C74.0485 35.4646 74.2224 35.6197 74.2224 35.93C74.2224 36.2462 74.0485 36.4043 73.7006 36.4043H67.2035Z" fill="#0057B8"/>
<path d="M77.0476 36.4043C76.6998 36.4043 76.5259 36.2462 76.5259 35.93V25.3429C76.5259 25.0267 76.6998 24.8686 77.0476 24.8686H81.6547C82.7769 24.8686 83.6235 25.1311 84.1944 25.6561C84.7719 26.1812 85.0607 26.9538 85.0607 27.974V28.511C85.0607 29.5252 84.7719 30.2949 84.1944 30.8199C83.6235 31.3449 82.7769 31.6074 81.6547 31.6074H77.5595V35.93C77.5595 36.2462 77.3889 36.4043 77.0476 36.4043ZM77.5595 30.6678H81.6547C82.4816 30.6678 83.0821 30.4977 83.4561 30.1576C83.8368 29.8116 84.0271 29.2627 84.0271 28.511V27.974C84.0271 27.2163 83.8368 26.6674 83.4561 26.3273C83.0821 25.9813 82.4816 25.8083 81.6547 25.8083H77.5595V30.6678Z" fill="#0057B8"/>
<path d="M96.5098 36.4043C95.0857 36.4043 94.0455 36.106 93.3893 35.5093C92.733 34.9127 92.4049 33.9671 92.4049 32.6724V25.3429C92.4049 25.1997 92.4508 25.0864 92.5427 25.0028C92.6411 24.9133 92.7691 24.8686 92.9266 24.8686C93.0841 24.8686 93.2088 24.9133 93.3007 25.0028C93.3925 25.0864 93.4385 25.1997 93.4385 25.3429V32.6724C93.4385 33.3645 93.5369 33.9134 93.7338 34.3191C93.9307 34.7248 94.2523 35.0171 94.6985 35.1961C95.1448 35.3751 95.7486 35.4646 96.5098 35.4646H98.8724C99.6271 35.4646 100.228 35.3751 100.674 35.1961C101.12 35.0171 101.442 34.7248 101.639 34.3191C101.835 33.9134 101.934 33.3645 101.934 32.6724V25.3429C101.934 25.1997 101.98 25.0864 102.072 25.0028C102.17 24.9133 102.298 24.8686 102.456 24.8686C102.613 24.8686 102.738 24.9133 102.83 25.0028C102.922 25.0864 102.968 25.1997 102.968 25.3429V32.6724C102.968 33.9671 102.639 34.9127 101.983 35.5093C101.333 36.106 100.297 36.4043 98.8724 36.4043H96.5098Z" fill="#0057B8"/>
<path d="M107.08 36.4043C106.732 36.4043 106.558 36.2462 106.558 35.93V25.3429C106.558 25.0267 106.732 24.8686 107.08 24.8686C107.421 24.8686 107.592 25.0267 107.592 25.3429V30.4888L113.439 25.0386C113.675 24.8179 113.915 24.8149 114.158 25.0297C114.414 25.2445 114.42 25.4682 114.177 25.7009L109.767 29.8086L114.955 35.6615C115.172 35.9061 115.149 36.1268 114.886 36.3237C114.617 36.5206 114.378 36.4997 114.168 36.2611L109.049 30.4888L107.592 31.8401V35.93C107.592 36.2462 107.421 36.4043 107.08 36.4043Z" fill="#0057B8"/>
<path d="M125.986 36.4222C125.842 36.4997 125.71 36.5266 125.592 36.5027C125.474 36.4789 125.369 36.4043 125.277 36.279L122.048 31.6074H118.436V35.93C118.436 36.2462 118.265 36.4043 117.924 36.4043C117.576 36.4043 117.402 36.2462 117.402 35.93V25.3429C117.402 25.0267 117.576 24.8686 117.924 24.8686H122.531C123.653 24.8686 124.499 25.1311 125.07 25.6561C125.648 26.1812 125.937 26.9538 125.937 27.974V28.511C125.937 29.4119 125.71 30.1189 125.257 30.632C124.805 31.1451 124.135 31.4583 123.249 31.5716L126.153 35.7778C126.337 36.0523 126.281 36.2671 125.986 36.4222ZM118.436 30.6678H122.531C123.358 30.6678 123.958 30.4977 124.332 30.1576C124.713 29.8116 124.903 29.2627 124.903 28.511V27.974C124.903 27.2163 124.713 26.6674 124.332 26.3273C123.958 25.9813 123.358 25.8083 122.531 25.8083H118.436V30.6678Z" fill="#0057B8"/>
<path d="M128.078 36.3595C127.763 36.2342 127.668 36.0254 127.793 35.7331L132.675 25.2355C132.78 24.9909 132.974 24.8686 133.256 24.8686H133.315C133.584 24.8746 133.775 24.9969 133.886 25.2355L138.769 35.7331C138.9 36.0254 138.808 36.2342 138.493 36.3595C138.172 36.4789 137.949 36.3953 137.824 36.1089L136.515 33.2899H130.067L128.758 36.1089C128.626 36.3953 128.4 36.4789 128.078 36.3595ZM130.49 32.3502H136.082L133.286 26.3542L130.49 32.3502Z" fill="#0057B8"/>
<path d="M141.688 36.4043C141.524 36.4043 141.396 36.3625 141.304 36.279C141.212 36.1955 141.166 36.0791 141.166 35.93V25.334C141.166 25.1848 141.212 25.0685 141.304 24.9849C141.396 24.9014 141.524 24.8596 141.688 24.8596C141.845 24.8596 141.97 24.9014 142.062 24.9849C142.154 25.0685 142.2 25.1848 142.2 25.334V35.93C142.2 36.0791 142.154 36.1955 142.062 36.279C141.97 36.3625 141.845 36.4043 141.688 36.4043Z" fill="#0057B8"/>
<path d="M146.398 36.4043C146.051 36.4043 145.877 36.2462 145.877 35.93V25.3429C145.877 25.0267 146.051 24.8686 146.398 24.8686C146.582 24.8686 146.759 24.9611 146.93 25.146L155.268 34.8829H155.032V25.3429C155.032 25.0267 155.206 24.8686 155.553 24.8686C155.895 24.8686 156.065 25.0267 156.065 25.3429V35.93C156.065 36.2462 155.895 36.4043 155.553 36.4043C155.363 36.4043 155.186 36.3118 155.022 36.1268L146.674 26.39H146.91V35.93C146.91 36.2462 146.74 36.4043 146.398 36.4043Z" fill="#0057B8"/>
<path d="M160.261 36.4043C159.913 36.4043 159.739 36.2462 159.739 35.93V25.3429C159.739 25.0267 159.913 24.8686 160.261 24.8686H167.634C167.982 24.8686 168.156 25.0267 168.156 25.3429C168.156 25.6532 167.982 25.8083 167.634 25.8083H160.773V30.095H165.311C165.659 30.095 165.833 30.2501 165.833 30.5604C165.833 30.8766 165.659 31.0347 165.311 31.0347H160.773V35.4646H167.634C167.982 35.4646 168.156 35.6197 168.156 35.93C168.156 36.2462 167.982 36.4043 167.634 36.4043H160.261Z" fill="#0057B8"/>
<path d="M178.434 36.4043C178.184 36.4043 178.017 36.282 177.931 36.0374L174.161 25.4951C174.109 25.3578 174.128 25.2206 174.22 25.0834C174.312 24.9402 174.456 24.8686 174.653 24.8686C174.765 24.8686 174.863 24.8984 174.949 24.9581C175.041 25.0118 175.103 25.0953 175.136 25.2087L178.64 34.9992H178.355L181.672 25.2355C181.718 25.1043 181.797 25.0088 181.908 24.9491C182.027 24.8895 182.148 24.8596 182.273 24.8596C182.404 24.8596 182.529 24.8895 182.647 24.9491C182.765 25.0088 182.84 25.1043 182.873 25.2355L186.191 34.9992H185.905L189.41 25.2087C189.456 25.0953 189.518 25.0118 189.597 24.9581C189.682 24.8984 189.78 24.8686 189.892 24.8686C190.115 24.8686 190.266 24.9372 190.345 25.0744C190.43 25.2117 190.447 25.3519 190.394 25.4951L186.614 36.0374C186.529 36.282 186.348 36.4043 186.073 36.4043H186.033C185.751 36.4043 185.57 36.282 185.492 36.0374L182.115 26.1752H182.401L179.024 36.0374C178.978 36.1865 178.906 36.285 178.808 36.3327C178.709 36.3804 178.584 36.4043 178.434 36.4043Z" fill="#0057B8"/>
<path d="M193.062 36.4043C192.898 36.4043 192.77 36.3625 192.678 36.279C192.586 36.1955 192.54 36.0791 192.54 35.93V25.334C192.54 25.1848 192.586 25.0685 192.678 24.9849C192.77 24.9014 192.898 24.8596 193.062 24.8596C193.219 24.8596 193.344 24.9014 193.436 24.9849C193.528 25.0685 193.574 25.1848 193.574 25.334V35.93C193.574 36.0791 193.528 36.1955 193.436 36.279C193.344 36.3625 193.219 36.4043 193.062 36.4043Z" fill="#0057B8"/>
<path d="M197.772 36.4043C197.424 36.4043 197.25 36.2462 197.25 35.93V25.3429C197.25 25.0267 197.424 24.8686 197.772 24.8686C197.956 24.8686 198.133 24.9611 198.304 25.146L206.642 34.8829H206.405V25.3429C206.405 25.0267 206.579 24.8686 206.927 24.8686C207.268 24.8686 207.439 25.0267 207.439 25.3429V35.93C207.439 36.2462 207.268 36.4043 206.927 36.4043C206.737 36.4043 206.56 36.3118 206.396 36.1268L198.048 26.39H198.284V35.93C198.284 36.2462 198.113 36.4043 197.772 36.4043Z" fill="#0057B8"/>
<path d="M18.6366 13.0908C19.0875 13.6366 19.668 14.0491 20.2953 14.0491C20.9226 14.0491 21.4495 13.6696 21.9262 13.0908C23.4889 11.1937 23.6428 10.5648 24.435 8.62171C25.1119 6.96125 25.8431 4.10774 25.8431 4.10774C25.8431 4.10774 25.8431 3.1806 25.4098 2.83725C24.9765 2.49389 24.0425 2.55326 23.7007 2.95682C23.3588 3.36039 23.0692 4.10774 23.0692 4.10774C23.0692 4.10774 21.5219 8.53139 20.2953 8.62171C19.0686 8.71202 17.7305 4.96012 17.382 4.10774C17.0335 3.25535 16.9794 3.0864 16.636 2.86666C16.2926 2.64692 15.9587 2.57694 15.5936 2.70172C15.1125 2.86613 14.7246 3.07645 14.7246 4.10774C14.7246 5.13902 15.7763 8.36878 15.9184 8.71202C16.0605 9.05525 17.1557 11.2983 18.6366 13.0908Z" fill="#0057B8"/>
<path d="M22.791 2.83529C22.791 4.18621 21.6959 5.28135 20.345 5.28135C18.994 5.28135 17.8989 4.18621 17.8989 2.83529C17.8989 1.48436 18.994 0.389221 20.345 0.389221C21.6959 0.389221 22.791 1.48436 22.791 2.83529Z" fill="#0057B8"/>
<path d="M24.6007 14.3763C24.4552 15.069 24.4946 15.7802 24.8857 16.2706C25.2768 16.761 25.902 16.9363 26.6517 16.9482C29.1093 16.9871 29.6969 16.7153 31.71 16.1232C33.4303 15.6172 36.1171 14.4097 36.1171 14.4097C36.1171 14.4097 36.842 13.8316 36.8403 13.2788C36.8386 12.7259 36.2098 12.0327 35.6812 12.0171C35.1525 12.0015 34.3876 12.241 34.3876 12.241C34.3876 12.241 29.9644 13.7894 29.129 12.8867C28.2936 11.9839 30.3926 8.59844 30.8417 7.79454C31.2909 6.99064 31.3892 6.84295 31.3469 6.43747C31.3046 6.032 31.1512 5.72734 30.826 5.51969C30.3975 5.24607 29.9912 5.07391 29.1849 5.71691C28.3786 6.35991 26.5092 9.19588 26.3294 9.52096C26.1497 9.84604 25.0788 12.1008 24.6007 14.3763Z" fill="#0057B8"/>
<path d="M35.209 11.2301C34.1528 12.0724 32.6138 11.899 31.7715 10.8428C30.9292 9.78659 31.1026 8.24757 32.1588 7.40528C33.215 6.56299 34.754 6.7364 35.5963 7.79259C36.4386 8.84879 36.2652 10.3878 35.209 11.2301Z" fill="#0057B8"/>
<path d="M27.3143 19.8414C26.682 20.1596 26.1506 20.6338 26.011 21.2453C25.8714 21.8569 26.1242 22.455 26.5823 23.0485C28.0842 24.9942 28.663 25.2842 30.3812 26.4889C31.8493 27.5184 34.4686 28.8662 34.4686 28.8662C34.4686 28.8662 35.3725 29.0725 35.8037 28.7265C36.2348 28.3804 36.3848 27.4566 36.0674 27.0336C35.75 26.6105 35.0859 26.1618 35.0859 26.1618C35.0859 26.1618 31.1174 23.669 31.3023 22.453C31.4872 21.237 35.4428 20.7673 36.3514 20.6172C37.2599 20.4672 37.4367 20.4519 37.7274 20.1661C38.018 19.8802 38.1605 19.5703 38.1201 19.1865C38.0669 18.6809 37.9481 18.2559 36.9427 18.0265C35.9373 17.797 32.5545 18.1036 32.1882 18.1658C31.822 18.2279 29.3914 18.7965 27.3143 19.8414Z" fill="#0057B8"/>
<path d="M36.3883 26.1738C35.0713 25.8732 34.2473 24.5618 34.5479 23.2448C34.8485 21.9277 36.1599 21.1037 37.477 21.4043C38.794 21.705 39.618 23.0163 39.3174 24.3334C39.0168 25.6504 37.7054 26.4744 36.3883 26.1738Z" fill="#0057B8"/>
<path d="M24.7335 25.3695C24.0905 25.0734 23.3884 24.9536 22.8233 25.2258C22.2581 25.498 21.9481 26.0685 21.7697 26.7968C21.1849 29.1841 21.3191 29.8174 21.4484 31.9118C21.5589 33.7016 22.1383 36.5897 22.1383 36.5897C22.1383 36.5897 22.5405 37.4251 23.0799 37.5464C23.6193 37.6678 24.435 37.209 24.5679 36.6971C24.7008 36.1852 24.6375 35.3862 24.6375 35.3862C24.6375 35.3862 24.1121 30.7293 25.1781 30.1157C26.2441 29.5021 29.0777 32.3018 29.7615 32.9186C30.4453 33.5354 30.5674 33.6641 30.9721 33.7131C31.3768 33.7621 31.708 33.6803 31.9828 33.4094C32.3449 33.0526 32.6031 32.6948 32.1557 31.7656C31.7082 30.8365 29.3593 28.3829 29.0824 28.1353C28.8055 27.8877 26.8455 26.3419 24.7335 25.3695Z" fill="#0057B8"/>
<path d="M25.4402 36.4119C24.854 35.1947 25.3656 33.7329 26.5827 33.1467C27.7998 32.5606 29.2617 33.0721 29.8478 34.2892C30.434 35.5064 29.9225 36.9682 28.7053 37.5544C27.4882 38.1405 26.0263 37.629 25.4402 36.4119Z" fill="#0057B8"/>
<path d="M18.8028 26.7993C18.6333 26.112 18.2893 25.4884 17.7241 25.2163C17.159 24.9441 16.5196 25.0574 15.839 25.372C13.6079 26.4033 13.1964 26.9031 11.6395 28.31C10.3092 29.5123 8.41232 31.766 8.41232 31.766C8.41232 31.766 8.01006 32.6013 8.25146 33.0987C8.49287 33.596 9.36014 33.9478 9.84321 33.7325C10.3263 33.5172 10.9115 32.9696 10.9115 32.9696C10.9115 32.9696 14.2249 29.6553 15.3693 30.1062C16.5136 30.557 16.0914 34.518 16.0355 35.4371C15.9796 36.3563 15.9551 36.532 16.1692 36.879C16.3832 37.226 16.6536 37.4339 17.0367 37.4799C17.5415 37.5405 17.9823 37.5193 18.4297 36.5901C18.8772 35.661 19.331 32.2948 19.3519 31.9239C19.3728 31.553 19.3593 29.0568 18.8028 26.7993Z" fill="#0057B8"/>
<path d="M10.6101 34.2366C11.1962 33.0195 12.6581 32.508 13.8752 33.0941C15.0923 33.6802 15.6039 35.1421 15.0177 36.3592C14.4316 37.5764 12.9697 38.0879 11.7526 37.5018C10.5354 36.9156 10.0239 35.4538 10.6101 34.2366Z" fill="#0057B8"/>
<path d="M13.9864 23.0528C14.4181 22.4919 14.6911 21.8341 14.5515 21.2225C14.4119 20.611 13.9247 20.1817 13.2544 19.8458C11.057 18.7444 10.4097 18.7343 8.33904 18.3943C6.56957 18.1038 3.62491 18.026 3.62491 18.026C3.62491 18.026 2.72102 18.2323 2.48269 18.7311C2.24435 19.2299 2.51007 20.1273 2.97958 20.3708C3.44909 20.6142 4.24216 20.7303 4.24216 20.7303C4.24216 20.7303 8.8992 21.2544 9.2602 22.4302C9.6212 23.606 6.26114 25.7455 5.50767 26.2749C4.75421 26.8043 4.60155 26.8947 4.46372 27.2784C4.3259 27.6621 4.33197 28.0032 4.53486 28.3313C4.80221 28.7638 5.09357 29.0952 6.099 28.8657C7.10443 28.6362 10.0192 26.8922 10.3222 26.6773C10.6252 26.4624 12.5683 24.8955 13.9864 23.0528Z" fill="#0057B8"/>
<path d="M3.06343 21.2846C4.38049 20.984 5.69186 21.8079 5.99247 23.125C6.29308 24.4421 5.46909 25.7534 4.15204 26.054C2.83498 26.3546 1.52361 25.5307 1.223 24.2136C0.922389 22.8965 1.74638 21.5852 3.06343 21.2846Z" fill="#0057B8"/>
<path d="M8.48533 7.30982C9.54153 8.1521 9.71494 9.69113 8.87265 10.7473C8.03036 11.8035 6.49134 11.9769 5.43514 11.1346C4.37895 10.2923 4.20554 8.75332 5.04783 7.69713C5.89012 6.64093 7.42914 6.46753 8.48533 7.30982Z" fill="#0057B8"/>
<path d="M13.9133 16.9522C14.6211 16.9399 15.3056 16.7432 15.6966 16.2528C16.0877 15.7624 16.1196 15.1138 15.9643 14.3803C15.4554 11.9756 15.0597 11.4632 14.0344 9.63235C13.1583 8.0678 11.3832 5.71702 11.3832 5.71702C11.3832 5.71702 10.6583 5.13897 10.1197 5.26365C9.58113 5.38833 9.0452 6.15558 9.14759 6.67445C9.24999 7.19332 9.65369 7.88575 9.65369 7.88575C9.65369 7.88575 12.1476 11.8535 11.4534 12.8689C10.7592 13.8842 6.99148 12.5912 6.10778 12.3322C5.22409 12.0732 5.05823 12.0102 4.67233 12.1416C4.28643 12.2731 4.02356 12.4905 3.89348 12.8537C3.72207 13.3324 3.64464 13.7668 4.45093 14.4098C5.25722 15.0528 8.43808 16.2443 8.79501 16.3472C9.15194 16.4501 11.5885 16.9924 13.9133 16.9522Z" fill="#0057B8"/>
</svg>
